<svg width="615" height="566" viewBox="0 0 615 566" fill="none" xmlns="http://www.w3.org/2000/svg">
<path d="M251.506 565.696C243.928 565.696 236.401 563.71 229.758 559.888L160.532 518.94C150.193 513.163 155.238 511.119 158.648 509.942C172.434 505.119 175.232 504.03 189.947 495.681C191.494 494.799 193.518 495.11 195.101 496.044L248.282 527.574C250.203 528.611 252.928 528.611 254.708 527.574L462.067 407.986C463.988 406.897 465.234 404.667 465.234 402.386V163.314C465.234 160.928 463.988 158.802 462.026 157.609L254.75 38.1249C252.829 36.984 250.286 36.984 248.366 38.1249L41.1307 157.609C39.122 158.75 37.8452 160.98 37.8452 163.262V402.334C37.8452 404.616 39.0909 406.794 41.0633 407.883L97.847 440.658C128.678 456.06 147.52 437.909 147.52 419.655V183.694C147.52 180.323 150.167 177.73 153.541 177.73H179.805C183.075 177.73 185.774 180.323 185.774 183.694V419.758C185.774 460.831 163.351 484.427 124.37 484.427C112.38 484.427 102.934 484.427 76.5661 471.462L22.17 440.139C15.5565 436.284 10.0689 430.765 6.25331 424.132C2.43774 417.499 0.4272 409.984 0.421875 402.334V163.262C0.421875 147.704 8.72664 133.183 22.17 125.508L229.737 5.86829C242.869 -1.54761 260.309 -1.54761 273.337 5.86829L480.644 125.56C487.257 129.403 492.745 134.912 496.561 141.537C500.377 148.161 502.388 155.67 502.392 163.314V402.386C502.392 417.892 494.036 432.36 480.644 440.139L273.337 559.779C266.691 563.602 259.154 565.606 251.485 565.587" fill="#689F63"/>
<path d="M315.557 400.959C224.828 400.959 205.805 359.347 205.805 324.446C205.805 321.127 208.483 318.482 211.81 318.482H238.593C241.551 318.482 244.043 320.634 244.51 323.554C248.559 350.822 260.6 364.575 315.464 364.575C359.168 364.575 377.749 354.711 377.749 331.556C377.749 318.228 372.455 308.323 304.564 301.685C247.78 296.084 212.692 283.586 212.692 238.209C212.692 196.41 247.988 171.518 307.107 171.518C373.493 171.518 406.401 194.543 410.553 244.017C410.622 244.849 410.518 245.686 410.246 246.475C409.975 247.265 409.543 247.989 408.977 248.604C408.411 249.218 407.724 249.708 406.959 250.043C406.194 250.378 405.368 250.551 404.532 250.551H377.594C374.791 250.551 372.351 248.581 371.78 245.884C365.292 217.206 349.617 208.027 307.003 208.027C259.303 208.027 253.749 224.622 253.749 237.068C253.749 252.159 260.289 256.567 324.651 265.072C388.39 273.525 418.65 285.453 418.65 330.208C418.65 375.325 380.968 401.203 315.256 401.203L315.557 400.959ZM567.824 147.662H574.78C580.489 147.662 581.579 143.669 581.579 141.335C581.579 135.216 577.375 135.216 575.039 135.216H567.876L567.824 147.662ZM559.364 128.059H574.78C580.074 128.059 590.455 128.059 590.455 139.883C590.455 148.129 585.161 149.84 581.994 150.878C588.171 151.292 588.586 155.338 589.417 161.042C589.832 164.62 590.507 170.792 591.753 172.866H582.254C581.994 170.792 580.541 159.383 580.541 158.76C579.918 156.219 579.036 154.975 575.87 154.975H568.032V172.918H559.364V128.059ZM540.834 150.359C540.834 168.925 555.835 183.964 574.261 183.964C592.843 183.964 607.843 168.614 607.843 150.359C607.843 131.741 592.635 116.962 574.209 116.962C556.042 116.962 540.782 131.534 540.782 150.307L540.834 150.359ZM614.279 150.463C614.279 172.451 596.268 190.395 574.312 190.395C552.512 190.395 534.346 172.659 534.346 150.463C534.346 127.852 552.928 110.531 574.312 110.531C595.853 110.531 614.227 127.904 614.227 150.463" fill="#689F63"/>
</svg>
