<svg width="90" height="90" viewBox="0 0 90 90" fill="none" xmlns="http://www.w3.org/2000/svg">
<mask id="path-1-inside-1_3_12" fill="white">
<path d="M37.5136 84C36.4719 84 35.4373 83.7295 34.5241 83.209L25.0085 77.6323C23.5873 76.8455 24.2808 76.5672 24.7495 76.4069C26.6445 75.7501 27.0291 75.6017 29.0518 74.4646C29.2644 74.3446 29.5426 74.387 29.7602 74.5141L37.0705 78.8082C37.3345 78.9495 37.7091 78.9495 37.9538 78.8082L66.457 62.5216C66.721 62.3733 66.8922 62.0696 66.8922 61.7589V29.1998C66.8922 28.8749 66.721 28.5854 66.4513 28.4229L37.9595 12.1505C37.6955 11.9951 37.3459 11.9951 37.0819 12.1505L8.59577 28.4229C8.31966 28.5783 8.14415 28.882 8.14415 29.1928V61.7518C8.14415 62.0626 8.31538 62.3592 8.5865 62.5075L16.3919 66.9711C20.6299 69.0688 23.2198 66.5968 23.2198 64.1107V31.9755C23.2198 31.5164 23.5837 31.1633 24.0475 31.1633H27.6576C28.1071 31.1633 28.4781 31.5164 28.4781 31.9755V64.1249C28.4781 69.7185 25.3959 72.9321 20.0377 72.9321C18.3896 72.9321 17.0911 72.9321 13.4667 71.1664L5.98945 66.9005C5.08037 66.3754 4.32606 65.6238 3.80158 64.7205C3.2771 63.8172 3.00073 62.7937 3 61.7518V29.1928C3 27.0739 4.14156 25.0964 5.98945 24.0511L34.5213 7.75747C36.3263 6.74751 38.7236 6.74751 40.5144 7.75747L69.0105 24.0582C69.9195 24.5816 70.6739 25.3319 71.1985 26.2341C71.723 27.1363 71.9994 28.1589 72 29.1998V61.7589C72 63.8706 70.8513 65.8411 69.0105 66.9005L40.5144 83.1942C39.6009 83.7148 38.5648 83.9877 37.5107 83.9852"/>
</mask>
<path d="M34.5241 83.209L34.0184 84.0718L34.0289 84.0778L34.5241 83.209ZM25.0085 77.6323L25.5141 76.7695L25.5036 76.7633L25.4928 76.7574L25.0085 77.6323ZM24.7495 76.4069L25.0731 77.3531L25.077 77.3517L24.7495 76.4069ZM29.0518 74.4646L29.5418 75.3363L29.5435 75.3354L29.0518 74.4646ZM29.7602 74.5141L30.2667 73.6518L30.2647 73.6506L29.7602 74.5141ZM37.0705 78.8082L36.564 79.6705L36.5812 79.6805L36.5987 79.6899L37.0705 78.8082ZM37.9538 78.8082L37.4577 77.94L37.4539 77.9421L37.9538 78.8082ZM66.457 62.5216L65.9672 61.6498L65.9609 61.6534L66.457 62.5216ZM66.4513 28.4229L66.9673 27.5663L66.9573 27.5603L66.9473 27.5546L66.4513 28.4229ZM37.9595 12.1505L37.4522 13.0123L37.4635 13.0188L37.9595 12.1505ZM37.0819 12.1505L37.578 13.0189L37.5892 13.0123L37.0819 12.1505ZM8.59577 28.4229L9.0862 29.2944L9.09179 29.2912L8.59577 28.4229ZM8.5865 62.5075L9.08292 61.6394L9.07472 61.6347L9.06643 61.6302L8.5865 62.5075ZM16.3919 66.9711L15.8955 67.8392L15.9215 67.8541L15.9483 67.8674L16.3919 66.9711ZM13.4667 71.1664L12.9711 72.035L12.9994 72.0511L13.0287 72.0654L13.4667 71.1664ZM5.98945 66.9005L5.48929 67.7665L5.49391 67.7691L5.98945 66.9005ZM3 61.7518L2 61.7518L2 61.7525L3 61.7518ZM5.98945 24.0511L6.48181 24.9215L6.48536 24.9195L5.98945 24.0511ZM34.5213 7.75747L34.033 6.88475L34.0253 6.8891L34.5213 7.75747ZM40.5144 7.75747L41.011 6.88944L41.0057 6.88645L40.5144 7.75747ZM69.0105 24.0582L69.5096 23.1916L69.5071 23.1902L69.0105 24.0582ZM72 29.1998L73 29.1998L73 29.1992L72 29.1998ZM69.0105 66.9005L69.5069 67.7686L69.5094 67.7672L69.0105 66.9005ZM40.5144 83.1942L41.0096 84.0629L41.0108 84.0623L40.5144 83.1942ZM37.5136 83C36.644 83 35.7803 82.774 35.0193 82.3402L34.0289 84.0778C35.0944 84.685 36.2998 85 37.5136 85V83ZM35.0297 82.3462L25.5141 76.7695L24.5029 78.495L34.0185 84.0717L35.0297 82.3462ZM25.4928 76.7574C25.1706 76.579 25.0586 76.4764 25.04 76.456C25.0345 76.4501 25.0825 76.4992 25.1203 76.6052C25.1634 76.7261 25.1809 76.8893 25.131 77.0623C25.0846 77.2227 25 77.3232 24.9525 77.37C24.9068 77.415 24.8744 77.4315 24.8812 77.4277C24.9017 77.4163 24.9538 77.3939 25.0731 77.3531L24.4259 75.4607C24.3109 75.5 24.1005 75.5726 23.9035 75.683C23.7417 75.7737 23.3512 76.0168 23.2096 76.507C23.0428 77.0842 23.3297 77.5498 23.5651 77.8068C23.8015 78.0649 24.1358 78.2922 24.5242 78.5072L25.4928 76.7574ZM25.077 77.3517C27.024 76.6769 27.4634 76.5048 29.5418 75.3363L28.5617 73.5929C26.5947 74.6987 26.265 74.8232 24.422 75.462L25.077 77.3517ZM29.5435 75.3354C29.439 75.3944 29.3493 75.3959 29.3115 75.3924C29.2755 75.389 29.2602 75.3801 29.2558 75.3775L30.2647 73.6506C29.8617 73.4152 29.1882 73.2392 28.56 73.5939L29.5435 75.3354ZM29.2537 75.3763L36.564 79.6705L37.577 77.946L30.2667 73.6518L29.2537 75.3763ZM36.5987 79.6899C37.1456 79.9825 37.8886 80.0005 38.4537 79.6743L37.4539 77.9421C37.487 77.923 37.5098 77.9168 37.5165 77.9152C37.5238 77.9135 37.5244 77.9142 37.5194 77.9142C37.5145 77.9142 37.5112 77.9135 37.5116 77.9136C37.5116 77.9136 37.5226 77.916 37.5423 77.9265L36.5987 79.6899ZM38.4499 79.6765L66.9531 63.3899L65.9609 61.6534L37.4577 77.94L38.4499 79.6765ZM66.9468 63.3935C67.5425 63.0588 67.8922 62.4117 67.8922 61.7589H65.8922C65.8922 61.7327 65.8986 61.7169 65.9044 61.7068C65.91 61.6969 65.9266 61.6726 65.9672 61.6498L66.9468 63.3935ZM67.8922 61.7589V29.1998H65.8922V61.7589H67.8922ZM67.8922 29.1998C67.8922 28.514 67.5284 27.9043 66.9673 27.5663L65.9354 29.2795C65.9251 29.2734 65.9142 29.2632 65.9056 29.2483C65.8967 29.2327 65.8922 29.215 65.8922 29.1998H67.8922ZM66.9473 27.5546L38.4554 11.2821L37.4635 13.0188L65.9554 29.2913L66.9473 27.5546ZM38.4667 11.2887C37.8897 10.949 37.1517 10.949 36.5747 11.2887L37.5892 13.0123C37.5564 13.0315 37.5325 13.0339 37.5207 13.0339C37.5089 13.0339 37.485 13.0315 37.4522 13.0123L38.4667 11.2887ZM36.5859 11.2822L8.09976 27.5546L9.09179 29.2912L37.5779 13.0188L36.5859 11.2822ZM8.10535 27.5514C7.51391 27.8843 7.14415 28.5214 7.14415 29.1928H9.14415C9.14415 29.2244 9.13584 29.2438 9.12988 29.254C9.12373 29.2645 9.11131 29.2803 9.08619 29.2944L8.10535 27.5514ZM7.14415 29.1928V61.7518H9.14415V29.1928H7.14415ZM7.14415 61.7518C7.14415 62.4168 7.50501 63.0557 8.10656 63.3848L9.06643 61.6302C9.09948 61.6483 9.11794 61.6704 9.12753 61.6869C9.13699 61.7031 9.14415 61.7244 9.14415 61.7518H7.14415ZM8.09007 63.3756L15.8955 67.8392L16.8883 66.1031L9.08292 61.6394L8.09007 63.3756ZM15.9483 67.8674C18.2835 69.0231 20.3515 68.9999 21.8878 68.13C23.3982 67.2749 24.2198 65.6909 24.2198 64.1107H22.2198C22.2198 65.0166 21.7465 65.9117 20.9024 66.3896C20.0843 66.8528 18.7384 67.0167 16.8355 66.0749L15.9483 67.8674ZM24.2198 64.1107V31.9755H22.2198V64.1107H24.2198ZM24.2198 31.9755C24.2198 32.0184 24.2 32.072 24.159 32.1121C24.1191 32.1511 24.0742 32.1633 24.0475 32.1633V30.1633C23.0525 30.1633 22.2198 30.9433 22.2198 31.9755H24.2198ZM24.0475 32.1633H27.6576V30.1633H24.0475V32.1633ZM27.6576 32.1633C27.6169 32.1633 27.5722 32.1463 27.5372 32.1121C27.5003 32.076 27.4781 32.0239 27.4781 31.9755H29.4781C29.4781 30.9433 28.6383 30.1633 27.6576 30.1633V32.1633ZM27.4781 31.9755V64.1249H29.4781V31.9755H27.4781ZM27.4781 64.1249C27.4781 66.7434 26.7588 68.6682 25.5454 69.9341C24.3376 71.194 22.5152 71.9321 20.0377 71.9321V73.9321C22.9185 73.9321 25.3162 73.0633 26.9892 71.3181C28.6564 69.5788 29.4781 67.0999 29.4781 64.1249H27.4781ZM20.0377 71.9321C19.2181 71.9321 18.5786 71.93 17.7122 71.7356C16.8327 71.5383 15.6793 71.1319 13.9046 70.2674L13.0287 72.0654C14.8784 72.9665 16.1865 73.443 17.2744 73.6871C18.3755 73.9341 19.2092 73.9321 20.0377 73.9321V71.9321ZM13.9622 70.2978L6.485 66.0319L5.49391 67.7691L12.9711 72.035L13.9622 70.2978ZM6.48961 66.0346C5.73096 65.5964 5.1027 64.9699 4.66638 64.2184L2.93678 65.2226C3.54942 66.2778 4.42979 67.1545 5.4893 67.7664L6.48961 66.0346ZM4.66638 64.2184C4.23009 63.467 4.00061 62.6164 4 61.7511L2 61.7525C2.00086 62.971 2.3241 64.1674 2.93678 65.2226L4.66638 64.2184ZM4 61.7518V29.1928H2V61.7518H4ZM4 29.1928C4 27.4309 4.95059 25.7877 6.4818 24.9215L5.49711 23.1807C3.33252 24.4051 2 26.717 2 29.1928H4ZM6.48536 24.9195L35.0172 8.62585L34.0253 6.8891L5.49355 23.1827L6.48536 24.9195ZM35.0095 8.63016C36.5124 7.78927 38.5385 7.79118 40.0232 8.6285L41.0057 6.88645C38.9087 5.70384 36.1402 5.70575 34.033 6.88479L35.0095 8.63016ZM40.0179 8.62549L68.514 24.9262L69.5071 23.1902L41.011 6.88946L40.0179 8.62549ZM68.5115 24.9248C69.2697 25.3614 69.8978 25.9865 70.334 26.7367L72.0629 25.7314C71.45 24.6772 70.5693 23.8018 69.5096 23.1916L68.5115 24.9248ZM70.334 26.7367C70.7701 27.4868 70.9995 28.3363 71 29.2004L73 29.1992C72.9993 27.9814 72.6759 26.7857 72.0629 25.7314L70.334 26.7367ZM71 29.1998V61.7589H73V29.1998H71ZM71 61.7589C71 63.5087 70.046 65.1508 68.5117 66.0338L69.5094 67.7672C71.6566 66.5314 73 64.2325 73 61.7589H71ZM68.5142 66.0324L40.0181 82.326L41.0108 84.0623L69.5069 67.7686L68.5142 66.0324ZM40.0192 82.3254C39.2577 82.7594 38.3932 82.9873 37.5131 82.9852L37.5083 84.9852C38.7364 84.9881 39.9441 84.6702 41.0096 84.0629L40.0192 82.3254Z" fill="#84CE25" mask="url(#path-1-inside-1_3_12)"/>
<mask id="path-3-inside-2_3_12" fill="white">
<path d="M46.0466 60.9673C33.608 60.9673 31 55.3841 31 50.7014C31 50.256 31.3672 49.9012 31.8233 49.9012H35.4951C35.9007 49.9012 36.2423 50.1899 36.3063 50.5817C36.8614 54.2402 38.5123 56.0855 46.0338 56.0855C52.0253 56.0855 54.5728 54.7621 54.5728 51.6553C54.5728 49.8671 53.847 48.5381 44.5394 47.6475C36.7546 46.896 31.9443 45.2191 31.9443 39.1308C31.9443 33.5226 36.7831 30.1827 44.8881 30.1827C53.9893 30.1827 58.5008 33.2721 59.0701 39.9101C59.0795 40.0217 59.0652 40.134 59.028 40.2399C58.9908 40.3458 58.9316 40.4431 58.854 40.5254C58.7764 40.6078 58.6822 40.6736 58.5773 40.7186C58.4725 40.7636 58.3592 40.7868 58.2446 40.7868H54.5515C54.1672 40.7868 53.8328 40.5224 53.7545 40.1606C52.865 36.3128 50.716 35.0812 44.8739 35.0812C38.3344 35.0812 37.573 37.3078 37.573 38.9777C37.573 41.0025 38.4696 41.5939 47.2933 42.7351C56.0316 43.8692 60.1802 45.4696 60.1802 51.4744C60.1802 57.5279 55.014 61 46.0053 61L46.0466 60.9673ZM80.6313 26.982H81.5848C82.3675 26.982 82.517 26.4462 82.517 26.1331C82.517 25.312 81.9406 25.312 81.6204 25.312H80.6384L80.6313 26.982ZM79.4714 24.3518H81.5848C82.3106 24.3518 83.7338 24.3518 83.7338 25.9383C83.7338 27.0446 83.008 27.2742 82.5739 27.4134C83.4207 27.469 83.4776 28.0118 83.5915 28.7772C83.6484 29.2573 83.7409 30.0853 83.9117 30.3636H82.6095C82.5739 30.0853 82.3747 28.5545 82.3747 28.471C82.2893 28.1301 82.1683 27.9631 81.7342 27.9631H80.6597V30.3706H79.4714V24.3518ZM76.931 27.3438C76.931 29.8348 78.9875 31.8526 81.5136 31.8526C84.0611 31.8526 86.1176 29.793 86.1176 27.3438C86.1176 24.8459 84.0327 22.8628 81.5065 22.8628C79.016 22.8628 76.9239 24.818 76.9239 27.3368L76.931 27.3438ZM87 27.3577C87 30.3079 84.5308 32.7154 81.5208 32.7154C78.5321 32.7154 76.0415 30.3358 76.0415 27.3577C76.0415 24.324 78.589 22 81.5208 22C84.4738 22 86.9929 24.331 86.9929 27.3577"/>
</mask>
<path d="M46.0466 60.9673L46.6676 61.7511L48.9189 59.9673H46.0466V60.9673ZM36.3063 50.5817L37.2951 50.4317L37.2932 50.4203L36.3063 50.5817ZM44.5394 47.6475L44.4433 48.6428L44.4442 48.6429L44.5394 47.6475ZM59.0701 39.9101L60.0665 39.8258L60.0664 39.8246L59.0701 39.9101ZM58.2446 40.7868L58.2446 41.7868L58.2447 41.7868L58.2446 40.7868ZM53.7545 40.1606L54.732 39.9491L54.7288 39.9353L53.7545 40.1606ZM47.2933 42.7351L47.422 41.7434L47.4215 41.7433L47.2933 42.7351ZM46.0053 61L45.3843 60.2162L43.133 62H46.0053V61ZM80.6313 26.982L79.6313 26.9777L79.627 27.982H80.6313V26.982ZM80.6384 25.312V24.312H79.6426L79.6384 25.3078L80.6384 25.312ZM79.4714 24.3518V23.3518H78.4714V24.3518H79.4714ZM82.5739 27.4134L82.2686 26.4611L82.5083 28.4112L82.5739 27.4134ZM83.5915 28.7772L84.5845 28.6594L84.5828 28.6447L84.5806 28.63L83.5915 28.7772ZM83.9117 30.3636V31.3636H85.6986L84.764 29.8406L83.9117 30.3636ZM82.6095 30.3636L81.6176 30.4904L81.7292 31.3636H82.6095V30.3636ZM82.3747 28.471H83.3747V28.3477L83.3447 28.2281L82.3747 28.471ZM80.6597 27.9631V26.9631H79.6597V27.9631H80.6597ZM80.6597 30.3706V31.3706H81.6597V30.3706H80.6597ZM79.4714 30.3706H78.4714V31.3706H79.4714V30.3706ZM76.931 27.3438H77.931V26.923L77.6301 26.6288L76.931 27.3438ZM76.9239 27.3368H75.9239V27.7576L76.2248 28.0518L76.9239 27.3368ZM46.0466 59.9673C39.9564 59.9673 36.4783 58.5982 34.5268 56.8462C32.5959 55.1128 32 52.8591 32 50.7014H30C30 53.2264 30.7081 56.1057 33.1908 58.3345C35.6529 60.5449 39.6982 61.9673 46.0466 61.9673V59.9673ZM32 50.7014C32 50.8366 31.8908 50.9012 31.8233 50.9012V48.9012C30.8436 48.9012 30 49.6755 30 50.7014H32ZM31.8233 50.9012H35.4951V48.9012H31.8233V50.9012ZM35.4951 50.9012C35.4199 50.9012 35.3359 50.8439 35.3194 50.743L37.2932 50.4203C37.1487 49.536 36.3815 48.9012 35.4951 48.9012V50.9012ZM35.3176 50.7317C35.6131 52.6792 36.2406 54.3994 38.0151 55.5456C39.6962 56.6314 42.2437 57.0855 46.0338 57.0855V55.0855C42.3023 55.0855 40.2636 54.617 39.1002 53.8655C38.0301 53.1744 37.5546 52.1427 37.295 50.4317L35.3176 50.7317ZM46.0338 57.0855C49.0603 57.0855 51.4004 56.7588 53.0108 55.923C53.8385 55.4935 54.4973 54.9174 54.9415 54.168C55.3842 53.4209 55.5728 52.5704 55.5728 51.6553H53.5728C53.5728 52.2936 53.443 52.7736 53.2209 53.1484C53.0001 53.5209 52.6476 53.8582 52.0895 54.1479C50.9283 54.7505 48.9988 55.0855 46.0338 55.0855V57.0855ZM55.5728 51.6553C55.5728 51.151 55.5254 50.5304 55.1912 49.9198C54.8513 49.2989 54.2862 48.8135 53.4908 48.4189C51.9614 47.6603 49.2809 47.0966 44.6347 46.652L44.4442 48.6429C49.1056 49.089 51.4418 49.6351 52.6021 50.2106C53.1516 50.4832 53.3497 50.721 53.4368 50.8801C53.5295 51.0494 53.5728 51.2655 53.5728 51.6553H55.5728ZM44.6355 46.6521C40.7491 46.2769 37.7974 45.681 35.8279 44.5275C34.8663 43.9644 34.1619 43.2805 33.6906 42.4367C33.2177 41.5902 32.9443 40.5195 32.9443 39.1308H30.9443C30.9443 40.7862 31.2721 42.2083 31.9445 43.412C32.6184 44.6185 33.6031 45.5423 34.8172 46.2533C37.1991 47.6483 40.545 48.2665 44.4433 48.6428L44.6355 46.6521ZM32.9443 39.1308C32.9443 36.6577 33.9906 34.7271 35.9453 33.3764C37.9426 31.9962 40.9536 31.1827 44.8881 31.1827V29.1827C40.7176 29.1827 37.2567 30.0391 34.8083 31.731C32.3174 33.4522 30.9443 35.9957 30.9443 39.1308H32.9443ZM44.8881 31.1827C49.3535 31.1827 52.5184 31.9457 54.6131 33.3819C56.6536 34.7809 57.8092 36.9102 58.0738 39.9955L60.0664 39.8246C59.7618 36.2719 58.377 33.5376 55.7441 31.7324C53.1654 29.9644 49.524 29.1827 44.8881 29.1827V31.1827ZM58.0737 39.9944C58.0712 39.965 58.075 39.9356 58.0845 39.9086L59.9715 40.5712C60.0554 40.3324 60.0879 40.0784 60.0665 39.8258L58.0737 39.9944ZM58.0845 39.9086C58.094 39.8816 58.1085 39.8584 58.1259 39.8399L59.5821 41.2109C59.7546 41.0277 59.8877 40.8101 59.9715 40.5712L58.0845 39.9086ZM58.1259 39.8399C58.1433 39.8215 58.163 39.8082 58.1832 39.7995L58.9715 41.6376C59.2014 41.539 59.4096 41.3942 59.5821 41.2109L58.1259 39.8399ZM58.1832 39.7995C58.2033 39.7909 58.2241 39.7868 58.2446 39.7868L58.2447 41.7868C58.4942 41.7868 58.7416 41.7362 58.9715 41.6376L58.1832 39.7995ZM58.2446 39.7868H54.5515V41.7868H58.2446V39.7868ZM54.5515 39.7868C54.5901 39.7868 54.627 39.8001 54.6568 39.8236C54.6866 39.8471 54.7188 39.8887 54.7319 39.9491L52.7771 40.372C52.9593 41.2139 53.7171 41.7868 54.5515 41.7868V39.7868ZM54.7288 39.9353C54.247 37.851 53.3723 36.2851 51.6681 35.31C50.0471 34.3825 47.8203 34.0812 44.8739 34.0812V36.0812C47.7696 36.0812 49.5384 36.3957 50.6748 37.0459C51.728 37.6485 52.3726 38.6223 52.7802 40.3858L54.7288 39.9353ZM44.8739 34.0812C41.5328 34.0812 39.437 34.6418 38.1663 35.6069C36.8149 36.6332 36.573 37.9719 36.573 38.9777H38.573C38.573 38.3135 38.7117 37.704 39.3759 37.1996C40.1208 36.6338 41.6755 36.0812 44.8739 36.0812V34.0812ZM36.573 38.9777C36.573 39.5381 36.6291 40.1856 37.001 40.7854C37.3774 41.3926 37.98 41.7997 38.7452 42.1131C40.2186 42.7167 42.7935 43.1615 47.165 43.7268L47.4215 41.7433C42.9694 41.1675 40.6841 40.7461 39.5033 40.2624C38.9413 40.0322 38.7683 39.8405 38.7009 39.7317C38.6288 39.6155 38.573 39.4297 38.573 38.9777H36.573ZM47.1646 43.7267C51.5486 44.2958 54.5687 44.9641 56.4947 46.1331C57.4281 46.6996 58.0795 47.3707 58.5079 48.1958C58.9405 49.0291 59.1802 50.0865 59.1802 51.4744H61.1802C61.1802 49.8599 60.9013 48.4655 60.283 47.2743C59.6604 46.0751 58.7286 45.1494 57.5325 44.4234C55.1996 43.0074 51.7763 42.3085 47.422 41.7434L47.1646 43.7267ZM59.1802 51.4744C59.1802 54.17 58.0529 56.2394 55.9132 57.6773C53.7234 59.1489 50.4035 60 46.0053 60V62C50.6159 62 54.3833 61.1151 57.0288 59.3373C59.7244 57.5257 61.1802 54.8323 61.1802 51.4744H59.1802ZM46.6263 61.7838L46.6676 61.7511L45.4255 60.1835L45.3843 60.2162L46.6263 61.7838ZM80.6313 27.982H81.5848V25.982H80.6313V27.982ZM81.5848 27.982C82.229 27.982 82.7763 27.7465 83.1325 27.2906C83.4526 26.8808 83.517 26.4207 83.517 26.1331H81.517C81.517 26.1329 81.517 26.1338 81.5169 26.1346C81.5168 26.1354 81.5169 26.1338 81.518 26.1296C81.5201 26.1223 81.529 26.0943 81.5564 26.0594C81.5702 26.0416 81.587 26.0245 81.606 26.0095C81.6252 25.9945 81.6424 25.9849 81.6547 25.9795C81.6801 25.9682 81.6665 25.982 81.5848 25.982V27.982ZM83.517 26.1331C83.517 25.4548 83.2515 24.8622 82.6756 24.5412C82.2285 24.292 81.7368 24.312 81.6204 24.312V26.312C81.7066 26.312 81.7411 26.3132 81.7671 26.3166C81.7908 26.3197 81.7579 26.3194 81.7019 26.2882C81.6717 26.2713 81.6374 26.2469 81.6045 26.2135C81.5713 26.1797 81.5474 26.1446 81.5316 26.1137C81.5006 26.0531 81.517 26.0413 81.517 26.1331H83.517ZM81.6204 24.312H80.6384V26.312H81.6204V24.312ZM79.6384 25.3078L79.6313 26.9777L81.6313 26.9862L81.6384 25.3163L79.6384 25.3078ZM79.4714 25.3518H81.5848V23.3518H79.4714V25.3518ZM81.5848 25.3518C81.9843 25.3518 82.3045 25.3659 82.5256 25.4641C82.6096 25.5014 82.6424 25.5364 82.6612 25.5655C82.6805 25.5952 82.7338 25.6939 82.7338 25.9383H84.7338C84.7338 25.3895 84.6092 24.8932 84.339 24.4768C84.0683 24.0596 83.6999 23.7972 83.3374 23.6362C82.6654 23.3378 81.9111 23.3518 81.5848 23.3518V25.3518ZM82.7338 25.9383C82.7338 26.1048 82.7068 26.1924 82.6908 26.2307C82.6762 26.2657 82.6615 26.2828 82.646 26.2967C82.5922 26.3454 82.5061 26.385 82.2686 26.4611L82.8792 28.3656C83.0758 28.3026 83.5697 28.1578 83.9872 27.7803C84.4564 27.3562 84.7338 26.7405 84.7338 25.9383H82.7338ZM82.5083 28.4112C82.6185 28.4185 82.625 28.4369 82.5855 28.4148C82.534 28.386 82.4989 28.3423 82.4864 28.3201C82.4831 28.3143 82.5012 28.3453 82.5263 28.461C82.552 28.5798 82.5714 28.7159 82.6024 28.9243L84.5806 28.63C84.5363 28.3322 84.4761 27.777 84.2287 27.3381C84.0819 27.0777 83.8667 26.84 83.5627 26.6698C83.2709 26.5064 82.9527 26.4361 82.6395 26.4155L82.5083 28.4112ZM82.5984 28.8949C82.6259 29.1264 82.6663 29.482 82.7232 29.8146C82.7517 29.9814 82.7872 30.1601 82.8322 30.3267C82.8722 30.4745 82.9396 30.6914 83.0594 30.8866L84.764 29.8406C84.7984 29.8967 84.7902 29.9057 84.763 29.805C84.7409 29.723 84.7177 29.6125 84.6946 29.4776C84.6483 29.2065 84.614 28.9081 84.5845 28.6594L82.5984 28.8949ZM83.9117 29.3636H82.6095V31.3636H83.9117V29.3636ZM83.6014 30.2368C83.5831 30.0936 83.5251 29.6467 83.4708 29.2185C83.4437 29.005 83.418 28.7996 83.3992 28.6432C83.3897 28.5646 83.3823 28.501 83.3774 28.4561C83.3684 28.3744 83.3747 28.4121 83.3747 28.471H81.3747C81.3747 28.5508 81.3871 28.6546 81.3892 28.6737C81.3953 28.7295 81.4038 28.8015 81.4135 28.8825C81.4332 29.0452 81.4595 29.2556 81.4867 29.47C81.5409 29.8976 81.6003 30.3553 81.6176 30.4904L83.6014 30.2368ZM83.3447 28.2281C83.2937 28.0245 83.1841 27.6383 82.8485 27.3409C82.4897 27.0228 82.0605 26.9631 81.7342 26.9631V28.9631C81.842 28.9631 81.6903 28.9868 81.5219 28.8375C81.446 28.7702 81.409 28.7036 81.3959 28.6759C81.3858 28.6547 81.3905 28.6577 81.4046 28.714L83.3447 28.2281ZM81.7342 26.9631H80.6597V28.9631H81.7342V26.9631ZM79.6597 27.9631V30.3706H81.6597V27.9631H79.6597ZM80.6597 29.3706H79.4714V31.3706H80.6597V29.3706ZM80.4714 30.3706V24.3518H78.4714V30.3706H80.4714ZM75.931 27.3438C75.931 30.4031 78.4514 32.8526 81.5136 32.8526V30.8526C79.5236 30.8526 77.931 29.2665 77.931 27.3438H75.931ZM81.5136 32.8526C84.6003 32.8526 87.1176 30.3584 87.1176 27.3438H85.1176C85.1176 29.2277 83.522 30.8526 81.5136 30.8526V32.8526ZM87.1176 27.3438C87.1176 24.2606 84.5514 21.8628 81.5065 21.8628V23.8628C83.5139 23.8628 85.1176 25.4311 85.1176 27.3438H87.1176ZM81.5065 21.8628C78.4993 21.8628 75.9239 24.2307 75.9239 27.3368H77.9239C77.9239 25.4053 79.5326 23.8628 81.5065 23.8628V21.8628ZM76.2248 28.0518L76.2319 28.0588L77.6301 26.6288L77.623 26.6218L76.2248 28.0518ZM86 27.3577C86 29.7338 84.0006 31.7154 81.5208 31.7154V33.7154C85.0609 33.7154 88 30.8821 88 27.3577H86ZM81.5208 31.7154C79.0563 31.7154 77.0415 29.7558 77.0415 27.3577H75.0415C75.0415 30.9157 78.0079 33.7154 81.5208 33.7154V31.7154ZM77.0415 27.3577C77.0415 24.9172 79.0994 23 81.5208 23V21C78.0786 21 75.0415 23.7308 75.0415 27.3577H77.0415ZM81.5208 23C83.9583 23 85.9929 24.9193 85.9929 27.3577H87.9929C87.9929 23.7426 84.9894 21 81.5208 21V23Z" fill="#84CE25" mask="url(#path-3-inside-2_3_12)"/>
</svg>
