<?xml version="1.0" encoding="UTF-8"?>
<svg xmlns="http://www.w3.org/2000/svg" xmlns:xlink="http://www.w3.org/1999/xlink" viewBox="0 0 480 480" width="480px" height="480px">
<g id="surface1109802">
<path style=" stroke:none;fill-rule:nonzero;fill:rgb(0%,0%,0%);fill-opacity:1;" d="M 240 346.800781 C 103.175781 346.800781 0 302.039062 0 240 C 0 177.960938 103.175781 132 240 132 C 376.824219 132 480 177.960938 480 240 C 480 302.039062 376.824219 346.800781 240 346.800781 Z M 240 167.183594 C 123.253906 167.183594 34.5 206.375 34.5 240.757812 C 34.5 275.136719 123.253906 312.816406 240 312.816406 C 356.746094 312.816406 445.5 273.625 445.5 239.242188 C 445.5 204.863281 356.746094 167.183594 240 167.183594 Z M 240 167.183594 "/>
<path style=" stroke:none;fill-rule:nonzero;fill:rgb(0%,0%,0%);fill-opacity:1;" d="M 148.824219 456 C 148.8125 456 148.824219 456 148.824219 456 C 137.652344 456 127.453125 453.40625 118.488281 448.296875 C 103.847656 439.933594 93.347656 425.160156 88.105469 405.550781 C 74.351562 354.167969 96.539062 267.769531 144.660156 185.425781 C 201.121094 88.882812 276.085938 24.035156 331.1875 24.035156 C 342.347656 24.035156 352.546875 26.628906 361.511719 31.738281 C 376.128906 40.078125 386.640625 54.839844 391.882812 74.4375 C 405.648438 125.820312 383.449219 212.230469 335.304688 294.574219 C 278.890625 391.128906 203.941406 456 148.824219 456 Z M 331.1875 60.035156 C 296.53125 60.035156 230.28125 110.351562 175.738281 203.59375 C 126.265625 288.265625 111.757812 358.5 122.890625 396.238281 C 125.902344 406.429688 130.152344 413.496094 136.34375 417.023438 C 164.675781 433.199219 242.050781 382.824219 304.234375 276.421875 C 353.734375 191.734375 369.757812 123 357.109375 83.761719 C 353.855469 73.667969 349.859375 66.539062 343.679688 63.023438 C 340.164062 61.007812 336.070312 60.035156 331.1875 60.035156 Z M 331.1875 60.035156 "/>
<path style=" stroke:none;fill-rule:nonzero;fill:rgb(0%,0%,0%);fill-opacity:1;" d="M 331.1875 455.964844 C 276.023438 455.953125 201.070312 391.105469 144.660156 294.574219 C 96.539062 212.230469 74.351562 125.820312 88.105469 74.449219 C 93.347656 54.839844 103.847656 40.066406 118.476562 31.714844 C 127.453125 26.59375 137.652344 24 148.800781 24 C 203.941406 24 278.878906 88.871094 335.304688 185.425781 C 383.4375 267.757812 405.625 354.167969 391.871094 405.5625 C 386.617188 425.160156 376.117188 439.921875 361.511719 448.261719 C 352.546875 453.371094 342.335938 455.964844 331.1875 455.964844 Z M 148.800781 60 C 143.914062 60 139.835938 60.984375 136.320312 62.976562 C 130.140625 66.503906 125.832031 73.546875 122.878906 83.761719 C 111.742188 122.257812 126.253906 191.746094 175.726562 276.421875 C 230.21875 369.648438 296.484375 419.964844 331.175781 419.964844 C 336.070312 419.964844 340.152344 418.980469 343.667969 416.976562 C 349.835938 413.472656 354.265625 406.464844 357.085938 396.238281 C 367.488281 358.488281 353.710938 288.238281 304.222656 203.578125 C 249.730469 110.328125 183.480469 60 148.800781 60 Z M 148.800781 60 "/>
<path style=" stroke:none;fill-rule:nonzero;fill:rgb(100%,100%,100%);fill-opacity:1;" d="M 282 240 C 282 263.21875 263.21875 282 240 282 C 216.78125 282 198 263.21875 198 240 C 198 216.78125 216.78125 198 240 198 C 263.21875 198 282 216.78125 282 240 Z M 282 240 "/>
<path style=" stroke:none;fill-rule:nonzero;fill:rgb(0%,0%,0%);fill-opacity:1;" d="M 240 288 C 213.527344 288 192 266.472656 192 240 C 192 213.527344 213.527344 192 240 192 C 266.472656 192 288 213.527344 288 240 C 288 266.472656 266.472656 288 240 288 Z M 240 204 C 220.152344 204 204 220.152344 204 240 C 204 259.847656 220.152344 276 240 276 C 259.847656 276 276 259.847656 276 240 C 276 220.152344 259.847656 204 240 204 Z M 240 204 "/>
<path style=" stroke:none;fill-rule:nonzero;fill:rgb(100%,100%,100%);fill-opacity:1;" d="M 240 336.816406 C 112.152344 336.816406 12 294.289062 12 240 C 12 185.710938 112.152344 143.183594 240 143.183594 C 367.847656 143.183594 468 185.710938 468 240 C 468 294.289062 367.847656 336.816406 240 336.816406 Z M 240 155.183594 C 122.914062 155.183594 24 194.027344 24 240 C 24 285.972656 122.914062 324.816406 240 324.816406 C 357.085938 324.816406 456 285.984375 456 240 C 456 194.015625 357.085938 155.183594 240 155.183594 Z M 240 155.183594 "/>
<path style=" stroke:none;fill-rule:nonzero;fill:rgb(100%,100%,100%);fill-opacity:1;" d="M 148.824219 444 C 148.8125 444 148.824219 444 148.824219 444 C 139.765625 444 131.566406 441.9375 124.429688 437.867188 C 112.476562 431.039062 104.160156 419.125 99.683594 402.445312 C 86.710938 354 108.433594 271.1875 155.003906 191.472656 C 208.546875 99.960938 280.992188 36.035156 331.1875 36.035156 C 340.234375 36.035156 348.445312 38.101562 355.570312 42.167969 C 367.511719 48.984375 375.828125 60.886719 380.304688 77.542969 C 393.277344 125.988281 371.554688 208.800781 324.960938 288.527344 C 271.453125 380.0625 199.03125 444 148.824219 444 Z M 331.1875 48.035156 C 285.78125 48.035156 216.046875 110.902344 165.382812 197.53125 C 121.042969 273.433594 99.300781 354.527344 111.289062 399.347656 C 114.898438 412.824219 121.320312 422.269531 130.390625 427.453125 C 135.683594 430.464844 141.875 432 148.8125 432 C 194.230469 432 263.953125 369.121094 314.578125 282.46875 C 358.945312 206.554688 380.699219 125.449219 368.6875 80.652344 C 365.089844 67.199219 358.667969 57.757812 349.609375 52.597656 C 344.316406 49.570312 338.125 48.035156 331.1875 48.035156 Z M 331.1875 48.035156 "/>
<path style=" stroke:none;fill-rule:nonzero;fill:rgb(100%,100%,100%);fill-opacity:1;" d="M 331.1875 443.964844 C 280.945312 443.953125 208.5 380.039062 155.015625 288.527344 C 108.433594 208.8125 86.722656 126 99.695312 77.554688 C 104.160156 60.875 112.476562 48.960938 124.441406 42.132812 C 131.566406 38.0625 139.765625 36 148.800781 36 C 199.019531 36 271.453125 99.9375 324.949219 191.472656 C 371.542969 271.175781 393.253906 353.988281 380.269531 402.457031 C 375.816406 419.125 367.5 431.027344 355.558594 437.832031 C 348.433594 441.898438 340.234375 443.964844 331.1875 443.964844 Z M 148.800781 48 C 141.875 48 135.671875 49.535156 130.378906 52.546875 C 121.308594 57.730469 114.886719 67.175781 111.277344 80.652344 C 99.289062 125.460938 121.03125 206.566406 165.371094 282.46875 C 216 369.085938 285.742188 431.953125 331.1875 431.964844 C 338.125 431.964844 344.328125 430.429688 349.621094 427.402344 C 358.667969 422.242188 365.089844 412.800781 368.6875 399.347656 C 380.6875 354.527344 358.945312 273.421875 314.59375 197.53125 C 263.953125 110.890625 194.242188 48 148.800781 48 Z M 148.800781 48 "/>
</g>
</svg>
