<svg width="469" height="387" viewBox="0 0 469 387" fill="none" xmlns="http://www.w3.org/2000/svg">
<g clip-path="url(#clip0_2_2)">
<path d="M234.5 232C258.524 232 278 213.868 278 191.5C278 169.132 258.524 151 234.5 151C210.476 151 191 169.132 191 191.5C191 213.868 210.476 232 234.5 232Z" fill="#84CE25"/>
<path d="M234.5 272.929C358.38 272.929 458.804 237.368 458.804 193.5C458.804 149.632 358.38 114.071 234.5 114.071C110.62 114.071 10.1956 149.632 10.1956 193.5C10.1956 237.368 110.62 272.929 234.5 272.929Z" stroke="#84CE25" stroke-width="18"/>
<path d="M160.331 233.215C222.27 332.713 305.69 395.592 346.652 373.659C387.615 351.725 370.609 253.284 308.669 153.785C246.729 54.2865 163.31 -8.59231 122.348 13.3415C81.3852 35.2753 98.3906 133.716 160.331 233.215Z" stroke="#84CE25" stroke-width="18"/>
<path d="M160.331 153.785C98.3907 253.284 81.3852 351.725 122.348 373.658C163.31 395.592 246.73 332.713 308.669 233.215C370.609 133.716 387.615 35.2753 346.652 13.3415C305.69 -8.59233 222.271 54.2865 160.331 153.785Z" stroke="#84CE25" stroke-width="18"/>
</g>
<defs>
<clipPath id="clip0_2_2">
<rect width="469" height="387" fill="white"/>
</clipPath>
</defs>
</svg>
